<svg t="1724233492996" class="icon" viewBox="0 0 1024 1024" version="1.1" xmlns="http://www.w3.org/2000/svg" p-id="1414" width="200" height="200"><path d="M128.6 469.3h665L589.1 264.8c-16.7-16.7-16.7-43.7 0-60.3 16.6-16.7 43.7-16.7 60.3 0l277.3 277.3c2 2 3.8 4.2 5.3 6.5 0.7 1 1.2 2.2 1.8 3.3 0.7 1.4 1.6 2.7 2.2 4.1 0.6 1.4 0.9 2.9 1.3 4.3 0.4 1.2 0.8 2.4 1.1 3.7 1.1 5.5 1.1 11.2 0 16.7-0.3 1.3-0.7 2.4-1.1 3.7-0.4 1.4-0.8 2.9-1.3 4.3-0.6 1.4-1.4 2.7-2.2 4.1-0.6 1.1-1.1 2.2-1.8 3.3-1.6 2.4-3.4 4.5-5.3 6.5L649.4 819.5c-8.3 8.3-19.2 12.5-30.2 12.5-10.9 0-21.8-4.2-30.2-12.5-16.7-16.7-16.7-43.7 0-60.3l204.5-204.5h-665c-23.6 0-42.7-19.1-42.7-42.7 0.1-23.6 19.2-42.7 42.8-42.7z" fill="#BDBDBD" p-id="1415"></path></svg>